<?xml version='1.0' encoding='utf-8'?>
<svg xmlns="http://www.w3.org/2000/svg" enable-background="new 0 0 5000 2834.739" version="1.1" viewBox="0 0 5e3 2834.7"> <path d="m4109.4 2831.5c-141.91-14.34-297.69-76.654-407.15-162.86l-25.461-20.053s-37.598 6.872-41.205 7.514c-105.35 18.75-259.96 2.651-367.92-38.312-105.26-39.938-185.09-93.092-270-179.78-71.276-72.77-76.392-87.244-88.108-111.25l-108.93 0.567c-44.052-27.183-40.902-24.86-40.902-38.417h59.502c67.478 0 63.846 1.752 51.894-25.036-7.011-15.715-21.553-54.878-41.897-112.83-12.065-34.371-19.019-83.884-23.325-92.115-1.45-2.772-2.636-7.017-2.636-9.433 0-3.648-5.295-4.399-31.202-4.433-17.161-0.022-34.218-0.847-37.904-1.835-5.221-1.398-7.06-0.427-8.32 4.393-2.582 9.872-21.259 8.934-21.259-1.068 0-6.264-1.301-7.256-9.513-7.256-5.232 0-12.089-1.767-15.238-3.927-8.702-5.969-71.04-5.938-105.11-10.167-23.069-2.864-22.671-3.21-27.885 24.273-11.656 61.431-20.473 85.936-43.024 119.58-15.168 22.628-16.643 26.979-9.141 26.979 5.254 0 39.043 21.041 44.663 27.812 8.587 10.346-1.223 12.823-50.792 12.823-36.815 0-48.2 0.922-52.615 4.261-7.292 5.516-21.854 5.608-29.025 0.185-6.614-5.002-29.506-4.318-83.93-4.446-46.434-31.632-58.156-37.617 7.909-37.968 24.345-0.13 143.58-2.667 143.58-2.667 32.016-48.22 45.207-69.198 58.504-155.28 3.275-21.202 6.271-18.746-26.665-21.862-48.778-4.615-205.51-30.153-240.16-39.134-9.192-2.382-27.609-6.384-40.926-8.892-85.992-16.201-234.65-62.84-234.65-73.619 0-5.654 49.343-96.032 49.343-115.23 0-32.19-106.22-271.17-126.41-284.4-13.657-8.948-58.495-6.568-66.754 3.545-42.122 51.574-90.801 128.03-116.89 183.59-24.513 52.206-24.495 52.058-7.21 62.831 249.88 155.74 342.01 507.77 200.17 764.83-98.837 179.12-238.02 273.46-462.14 313.25-135.53 24.064-334.58-40.235-450.98-145.68-22.108-20.028-24.244-20.517-66.847-15.311-208.43 25.471-393.06-47.727-527.71-209.21-106.57-127.8-148.93-324.23-104.62-485.07 15.172-55.068 15.173-52.546 0-58.543-14.648-5.79-17.821-9.839-17.881-22.837-0.052-11.188 2.706-10.178-45.033-16.489-100.57-13.294-93.403-13.288-95.783-37.842-28.818-7.233-110.01-28.443-111.25-24.721-1.861 5.583-15.013 3.38-15.013-2.514 0-3.026-2.592-6.144-5.805-6.985-9.84-2.573-7.24-19.216 3.628-23.225 4.066-1.5 5.079-5.354 5.079-19.325 0-18.803-0.029-18.831-20.318-21.103-4.734-0.53-7.55-2.861-8.1-6.703-0.973-6.793 68.61-8.774 75.242-2.142 5.63 5.63-0.375 9.484-14.776 9.484h-14.05c-3.002 33.476-5.029 38.739 18.844 43.556 22.521 4.544 148.99 33.192 184.36 41.761 32.06 7.768 31.319 7.978 31.319-8.884 0-12.616-7.22-24.188-15.093-24.188-2.3 0-2.506-0.977-0.608-2.875 4.146-4.146 28.021-6.89 40.153-4.614 11.844 2.222 14.578 10.392 3.478 10.392-15.949 0-13.325 15.781-11.965 41.731 26.316 6.691 34.533 10.853 31.183-16.334-1.195-9.699-2.236-10.884-9.56-10.884-13.176 0-12.726-5.241 0.761-8.873 14.143-3.808 41.546-2.372 46.347 2.429 2.359 2.359 0.972 3.759-5.181 5.232-13.351 3.198-15.658 6.589-15.658 23.025 0 29.614 7.89 25.833 33.408-16.009 36.606-60.024 96.896-123.56 161.79-170.5 18.758-13.569 34.104-26.335 34.104-28.371 0-7.046-27.172-21.72-40.219-21.72-11.464 0-12.037-0.398-10.334-7.183 1.434-5.713 0.373-7.835-5.18-10.365-10.613-4.836-14.701-13.817-15.759-34.627-5.965-117.31-7.79-146.28-11.337-180.02-3.963-37.697-13.428-97.829-18.732-119-23.802-95.02-40.064-87.175 178.48-86.099 192.3 0.947 176.66-9.96 190.08 132.54 9.947 105.62 9.673 123.57 13.095 256.87 131.1 6.421 226.18 17.681 377.36 127.58 5.19 3.773 9.224 3.478 36.281-2.646 16.743-3.79 37.234-7.768 45.534-8.841 8.301-1.072 16.395-3.52 17.988-5.439 11.061-13.328 45.747-135.04 41.008-143.9-2.12-3.961-1.997-7.82 0.417-13.119 2.677-5.874 2.268-23.45-1.876-80.816-15.911-220.24 14.179-261.04 192.16-260.54l90.642 0.255 1.574-114.19 37.733-9.251c44.428-10.893 56.624-25.01 23.22-26.877-27.729-1.55-28.17-11.72-0.786-18.12 35.847-8.378 48.102-23.155 19.202-23.155-9.135 0-5.44-9.976 4.103-11.077 6.545-0.755 7.957-2.35 7.957-8.983 0-26.004 54.76-26.142 59.958-0.15 1.327 6.635 3.295 8.601 8.614 8.601 10.426 0 9.446 10.931-1.088 12.143-26.563 3.056 6.229 28.492 36.732 28.492 17.359 0 6.157 11.329-12.06 12.197-30.024 1.43-27.114 13.307 5.079 20.732 12.771 2.945 43.538 10.441 43.538 10.441v120.62l21.769 1.802v-30.168c0-60.079 10.478-49.217 1.46-81.166-8.325-29.493-7.211-61.02 2.89-81.738l8.346-17.119-6.94-11.906c-9.298-15.952-15.714-59.097-9.788-65.831 2.218-2.52 4.032-7.333 4.032-10.695s1.431-9.79 3.18-14.284c7.948-20.423 5.885-138.66 4.076-725.09l-567.44-1.451v-25.388c85.511-29.252 181.8-63.376 281.54-69.174 38.11-2.215 266.74-12.54 313.47-14.157 70.84-2.45 912.04-12.806 992.66-11.957 80.617 0.849 1124.7 17.632 1124.7 17.632l0.925 76.917c1.56 129.72-16.042 552.51-16.955 565.99-11.749 173.25-24.898 390.78-57.907 562.88-7.163 37.344-11.771 34.924 45.702 24 466.66-88.693 897.12 215.58 960.08 678.64 6.396 47.043 8.827 141.14 4.513 174.7-11.256 87.563-23.854 140.74-52.471 221.47-49.348 139.22-187.69 309.87-313.54 386.77-111.14 67.907-176.66 79.322-210.43 94.854-11.485 5.282-42.83 10.324-75.465 17.565-55.312 12.273-167.35 17.021-236.56 10.027zm125.38-32.623c-4.16-41.876-33.796-542.74-34.13-549.88-2.193-46.868-3.009-48.379-12.535-23.22-32.458 85.723-110.57 195.34-184.67 259.15-14.367 12.373-38.277 33.245-42.489 36.862-4.212 3.616-12.556 16.372-18.542 28.344-32.6 65.204-77.458 152.47-83.257 161.97-7.173 11.747-9.385 9.767 28.544 25.544 89.76 37.335 175.7 56.921 268.13 61.104 21.551 0.976 39.729 2.253 40.394 2.838 3.12 2.747 25.284-0.888 38.557-2.707zm101-10.929c85.29-16.334 173.04-49.079 250.34-93.42 38.917-22.322 42.726-9.262-36.281-124.44-60.447-88.119-254.22-371.35-276.42-405.27-33.423-51.063-47.935-69.353-47.935-60.417 0 0.694-2.03 10.816-4.512 22.495-4.858 22.86-3.394 78.424 5.915 224.41 2.239 35.12 21.794 416.5 21.803 425.36 0.025 24.599 10.461 25.951 87.09 11.276zm-2845.9-2.672c36.007-6.993 80.849-18.661 95.917-24.957l10.063-4.205c-15.172-35.706-63.872-165.84-70.035-172.46-1.412-1.517-2.566-4.824-2.566-7.349 0-4.173-15.425-45.282-51.205-136.47-54.015-137.66-47.887-126.71-69.135-123.53-15.747 2.362-17.736 6.804-38.031 84.961-7.373 28.394-55.626 219.1-58.868 228.68-11.048 32.647-38.496 144.52-36.057 146.96 2.487 2.487 58.524 12.826 82.047 15.137 31.011 3.048 106.37-0.654 137.87-6.772zm-237.23-15.28c2.63-3.248 27.687-97.842 36.712-138.6 1.944-8.78 4.37-17.923 5.39-20.318 2.591-6.084 10.457-40.048 19.453-72.563 9.634-34.823 25.344-108.9 30.657-122.63 4.03-10.418-3.812-4.572-13.105 9.769-56.1 86.576-155.8 164.35-261.92 204.33-48.367 18.22-47.485 17.145-27.769 33.875 43.609 37.008 89.972 64.472 147.4 87.317 61.609 24.508 59.161 23.78 63.179 18.818zm397.38-36.925c78.593-39.691 137.52-87.267 186.87-150.88 32.862-42.362 33.853-37.982-15.402-68.045-34.34-20.96-280.91-175.63-300.53-188.38-52.043-33.801-28.688-16.547-64.595-16.547-20.245 0-21.244-3.185 84.388 268.48 63.977 164.54 64.879 172.7 71.284 172.7 2.02 0 19.116-7.8 37.992-17.332zm2213.4-63.416c56.798-116.46 34.037-68.911 40.823-83.244 18.688-39.47 31.664-49.681-15.783-21.364-43.678 26.068-149.71 72.158-166.01 72.158-11.506 0 6.527 13.319 70.918 52.38 49.826 30.226 44.908 31.625 70.05-19.93zm782.61-14.108c92.331-68.866 157.23-141.53 219.19-245.42 19.357-32.457 19.259-34.718-1.914-44.141-8.401-3.739-543.2-257.7-556.98-264.58-13.781-6.875-25.786-11.77-26.679-10.878-0.893 0.893-7.585 1.998-14.873 2.457-15.573 0.98-15.691 1.282-6.025 15.317 53.137 77.151 370.27 554.65 374.22 554.87 1.446 0.082 7.324-3.353 13.061-7.633zm-3777.9-157.64c-30.394-62.113-32.223-66.711-41.562-104.51-11.688-47.304-17.808-90.894-19.094-135.99-0.612-21.449-1.575-39.461-2.141-40.027-1.812-1.813-118.44 182.64-199.92 307.86-30.201 46.415-30.796 40.834 6.351 59.578 79.696 40.213 155.52 57.979 243.81 57.125l39.184-0.379c3.123-53.692 3.321-82.451-26.629-143.66zm70.654 141.91c18.985-3.306 22.567-7.172 13.513-14.585-2.676-2.191-14.582-17.045-26.457-33.009-28.43-38.219-27.81-38.406-25.293 7.625 2.699 49.36 0.073 46.614 38.237 39.969zm2613.7-8.495c46.569-3.128 86.621-7.695 89.085-10.159 0.796-0.796-12.925-16.123-30.491-34.06-132.9-135.7-123.5-220.74-130.99-130.57-4.762 57.314-18.651 162.49-17.419 168.89 1.706 8.865 23.94 10.326 89.814 5.902zm-97.985-13.929c0.896-5.861 16.723-200.41 17.431-208.83 1.12-13.315-0.357-19.028-11.293-43.693-20.809-46.933-46.778-128.65-55.729-175.37-4.512-23.546-9.052-42.812-10.089-42.812-5.704-2e-3 -163.13 226.81-200.5 275.74-70.479 92.254-69.512 89.512-38.115 108.04 84.292 49.736 185.28 85.019 282.59 98.729 11.351 1.6 13.959-0.359 15.707-11.799zm-2255.7-90.055c14.175-9.451 14.962-7.258-15.799-44.008-32.666-39.025-22.863-40.789-89.957 16.187-127.03 107.88-128.4 90.568-105.69 115.2l12.714 13.785c102.92-35.489 108.75-41.168 198.73-101.16zm2551 67.661c65.622-25.378 62.864-14.141 23.363-95.205-41.309-84.773-59.378-129.61-62.301-129.61-1.749 0-145.25 93.394-149.88 97.545-1.482 1.329 15.194 20.699 43.851 59.191 24.013 32.254 58.61 65.54 79.702 86.568 16.225-3.401 34.02-6.401 65.267-18.486zm-2773-20.916c19.214-14.469 59.117-51.476 166.47-137.85-13.77-15.253-44.461-49.127-57.32-65.041-70.03-86.666-81.977-97.828-103.89-97.039-111.47 4.014-100.81-1.585-97.409 51.177 10.409 161.46-0.157 144.14 42.7 210.3 32.089 49.534 33.393 50.548 49.446 38.459zm2960.2-78.105c23.246-17.253 22.685-16.387 69.237-106.93 15.594-30.331 29.59-56.723 31.102-58.649 6.071-7.734-3.938-10.363-101.62-80.61-28.203-20.281-4.485-23.259-180.57 89.788-46.206 29.664-29.297 14.087-3.029 83.218 16.375 43.095 62.895 141.7 66.885 141.77 5.263 0.09 58.065-24.101 118-68.586zm-3354.1 47.389c25.825-44.492 10.867-11.681 211.53-337.68 17.681-28.725 19.518-35.733 9.396-35.833-6.165-0.061-39.181-8.652-47.247-10.677-314.42 122.48-390.38 150.78-393.88 154.27-5.498 5.498 52.043 102.47 80.159 135.09 42.198 48.961 120.32 116.62 128.69 111.45 1.453-0.897 6.56-8.381 11.348-16.63zm1310.8-50.555c40.148-76.47 57.708-142.42 60.939-228.87 2.126-56.882 9.403-51.776-68.177-47.841-59.359 3.011-85.83 4.518-209.55 11.925-79.897 4.784-165.44 22.801-165.44 34.844 0 3.306-2.054 9.983-4.564 14.837-7.393 14.297 1.316 21.139 125.02 98.207 23.946 14.918 210.46 134.32 222.04 142.14 19.216 12.987 19.887 12.56 39.733-25.242zm-647.13-7.256c73.261-74.238 130.42-169.69 109.72-183.25-10.272-6.73-9.502-7.09-44.329 20.709l-90.266 71.837c-68.479 54.41-64.975 45.092-32.058 85.258 31.636 38.602 24.852 37.953 56.931 5.446zm2145.7-366.44c-3.33-79.071-3.094-89.163-8.365-87.549-2.54 0.778-17.68 7.28-33.644 14.449-6.056 2.72-140.43 62.57-412.16 183.96-38.487 17.194-37.704 16.032-25.54 37.889l10.097 18.141h58.98c56.346 31.824 70.96 37.732 7.256 37.732-27.972 0-40.635 1.009-40.635 3.239 0 9.16 58.141 76.764 69.601 90.625 10.056 12.162 98.07 88.703 102.22 88.899 3.786 0.178 8.16-7.125 272.18-387.39zm236.51 281.43 76.918-50.906c-11.838-23.229-6.351-9.429-123.07-265.95l-67.962 5.404-24.631 259.86c9.474 17.328 23.722 43.121 33.389 62.688 24.118 48.82 13.081 49.982 105.36-11.091zm402.94 10.268c24.866-26.415 50.286-57.528 48.2-58.993-32.273-22.671-15.355-32.309-63.335 56.819-18.859 35.031-16.16 35.419 15.135 2.174zm-3151.4-5.077c-1.188-15.565-8.795-120.81-8.795-120.81-27.944-7.239-34.821-11.35-17.115 69.293 16.145 73.532 29.638 100.36 25.91 51.52zm414.44-94.789c50.029-40.342 50.016-39.971 1.407-41.238-40.682-1.06-54.575-2.94-54.575-7.384 0-4.307-218.31 5.924-222.83 10.443-1.852 1.851 24.276 34.176 119.06 147.3 12.048 14.379 2.904 15.09 156.94-109.12zm3606.6 26.546c61.499-149.42 61.42-228.03 65.053-341.74-31.976 0.117 0.712-1.78-652.27 47.892l-1.907 9.36c-3.464 16.998-13.617 21.588-7.642 26.21 8.933 6.912 270.99 130.18 543.39 264.91 44.046 21.787 41.553 22.097 53.38-6.637zm-728.11-158.03c22.812-62.239 23.001-70.511 1.617-70.511-3.313 0-112.02 207.96-112.02 214.3 0 2.953 20.238 17.473 24.671 17.7 5.546 0.284 55.386-78.694 85.732-161.49zm-375.98 109.46c39.909-25.964 78.073-50.631 84.807-54.815 15.816-9.825 15.528-12.284-2.811-23.957-13.626-8.673-186.94-132.27-186.94-132.27-4.144 0.266-90.972 4.989-90.972 8.5 0 2.516 18.671 44.571 38.366 86.42 4.884 10.376 58.643 130.72 64.439 143.27 13.007 28.162 4.109 30.756 93.115-27.149zm-313.79 13.77c1.817-15.384 17.735-212.49 17.735-212.49-72.462 2.118-75.875-1.194-72.547 30.32 3.865 36.605 26.414 141.84 34.216 159.68 11.418 26.105 16.742 55.118 20.596 22.494zm672.46-200.66-14.394-14.393s-179.54 116.97-199.98 129.8c-15.26 9.582-15.806 8.714 22.079 35.116 42.549 29.652 79.569 59.036 82.406 59.342 2.27 0.244 26.344-49.218 109.89-209.87zm-3774.6 192.76c15.863-7.193 167.74-68.146 310.08-124.44 19.04-7.53 35.074-15.061 35.632-16.735 1.071-3.214-49.799-15.689-63.858-15.663-4.947 9e-3 -10.746-2.817-14.84-7.234-8.983-9.693-38.846-19.539-101.36-33.42-28.468-6.321-121.36-27.193-127.2-28.076-37.297-5.64-19.562-40.23 24.905-48.572 22.263-4.177 10.196-9.411-60.63-26.299-58.897-14.044-60.914-10.147-60.781 117.5 0.075 72.026 13.91 148.92 33.556 186.49 3.363 6.429 2.102 6.612 24.503-3.545zm464.12-111.83c-5.269 80.711-7.689 80.606 10.755 79.262l12.26-0.894c-3.065-84.436-2.009-78.368-23.015-78.368zm129.89 72.208c13.101-2.557 10.65-2.98-31.206-47.948-64.762-14.483-59.016-13.07-69.112-14.893 4.042 33.665 3.757 35.235 3.809 68.292 14.122-0.62 86.313-3.461 96.509-5.451zm129.05-8.005c3.019-3.018-2.765-7.604-9.591-7.604-10.58 0-34.239-10.086-51.982-13.096-78.937-13.391-87.504-23.267-57.182 9.385 15.379 16.561 17.602 17.953 26.817 16.79 15.34-1.937 89.884-3.421 91.938-5.475zm1825.8-26.129c46.301-23.219 53.918-24.367 83.398-38.015 71.533-33.117 351.89-165.54 369.37-171.08 9.659-3.066 8.091-8.521-1.877-6.528-11.165 2.233-15.018-2.806-23.547-30.795-8.011-26.286-8.653-26.976-26.893-28.927-16.613-1.777-15.011-4.061-20.839 29.721-2.614 15.152-5.678 28.446-6.809 29.543-3.856 3.738-171.77 20.962-237.16 24.329-26.5 1.364-42.627 3.469-46.36 6.05-3.149 2.177-9.96 3.958-15.136 3.958-6.44 0-10.392 1.832-12.518 5.805-3.585 6.698-24.51 8.39-26.895 2.174-0.794-2.069-5.609-3.414-11.195-3.126-29.14 1.503-43.18-0.808-43.18 5.306 0 3.289-3.548 4.354-14.513 4.354-8.369 0-14.512-1.314-14.512-3.104 0-1.708-2.939-2.687-6.531-2.177-6.498 0.923-6.534 1.219-7.318 60.049-0.859 64.536-0.424 66.855 21.15 112.85 8.616 18.367 3.884 18.411 41.365-0.385zm-1691.5 2.61c3.646-4.393-5.504-10.207-16.064-10.207-15.728 0-141.95-39.236-158.26-24.475-5.271 4.771-28.529 4.65-51.267-0.265-11.036-2.386-20.575 0.281-16.299 4.558 4.211 4.211 41.789 10.323 192.59 31.327 30.038 4.183 45.293 3.893 49.303-0.938zm314.96-7.533c76.192-9.081 273.04-50.151 351.72-69.826-0.72-34.749 17.439-31.67-208.05-77.699-16.762-3.422-33.415-6.995-37.007-7.941-5.079-1.337-6.531-0.498-6.531 3.778 0 19.57-18.172 18.243-51.48 19.925-176.13 142.93-135.04 111.1-109.55 130.36 6.9 5.215 25.341 5.639 60.898 1.401zm2378.1-16.846c9.034-6.198 34.058-22.442 55.609-36.099 119.47-75.704 139.7-90.053 137.8-97.754-2.92-11.844-4.293-12.064-55.383-8.889-26.97 1.676-259.61 15.478-289.94 16.498-90.026 3.03-79.86-7.367 91.429 113.73 38.667 27.335 38.843 27.371 60.492 12.518zm-1975.8-3.793-1.232-12.061c-1.344-13.153-7.798-39.635-9.66-39.635-0.638 0-7.34 3.162-14.894 7.027-8.164 4.177-36.686 11.866-70.332 18.96-145.25 30.623-179.36 40.464-127.71 36.846 48.391-3.39 139.53-5.333 223.83-11.137zm-600.85-11.304c12.351-9.782 13.712-15.702 6.721-29.221-3.856-7.456-5.809-8.585-12.336-7.13-4.265 0.951-13.818 2.555-21.229 3.565s-17.083 4.714-21.494 8.231l-8.019 6.395c1.8 1.111 42.656 26.429 44.021 26.817 0.568 0.162 6.119-3.734 12.336-8.657zm-62.174-1.369c1.713-5.147-19.947-15.488-28.838-13.768-4.39 0.849-7.982 2.673-7.982 4.053s3.592 3.382 7.982 4.448c4.39 1.067 10.594 3.734 13.787 5.926 6.404 4.399 13.471 4.089 15.051-0.659zm192.99-28.408c48.538-40.732 65.64-56.819 60.445-56.856-6.498-0.046-65.301 15.814-88.283 23.811-18.907 6.579-20.272 7.655-23.476 18.508-8.082 27.372-7.759 32.718 2.349 38.881 12.42 7.574 8.766 9.39 48.965-24.344zm-79.416-1.576c1.13-15.777-1.046-18.066-15.02-15.798-13.451 2.183-15.164 5.783-9.361 19.671 7.105 17.005 23.067 14.47 24.381-3.873zm-192.54-0.471c35.841-5.179 45.394 4.586-152.64-119l-12.178 3.327c-23.291 6.364-118.06 44.722-118.09 47.797-0.035 3.779 55.264 18.567 81.241 21.725 18.568 2.257 29.151 5.526 37.733 11.656 6.629 4.735 121.94 36.807 133.52 37.135 5.587 0.159 19.273-1.028 30.413-2.638zm-269.18-7.68c1.235-3.766-19.67-10.558-27.723-9.007-8.624 1.661-7.54 10.469 1.464 11.893 13.322 2.106 25.044 0.818 26.259-2.886zm364.95-8.428c42.729-6.951 43.339-7.287 37.629-20.71-26.857-63.142-34.554-99.461-40.458-99.461-8.2 0-12.685-6.416-15.023 2.526-1.968 7.526-19.567 8.969-22.307 1.828-2.659-6.93-21.124-5.765-23.011 1.451-1.952 7.463-15.261 7.878-19.158 0.596-3.029-5.66-15.979-5.321-91.748 2.408-55.918 5.704-55.653 4.931-10.884 31.611 91.036 54.252 133.61 87.309 147.3 85.567 4.788-0.608 21.734-3.225 37.657-5.816zm-518.02-12.778c0-8.036-10.147-17.415-18.842-17.415-4.088 0-8.807-2.523-10.857-5.805-4.592-7.354-18.07-7.433-50.886-0.298-42.248 9.186-39.07 11.374 35.596 24.51 35.487 6.244 44.989 6.035 44.989-0.992zm607.55-5.605c6.545-2.489 7.78-4.698 7.77-13.915-0.025-22.29-6.358-77.797-9.285-81.324-6.401-7.712-66.17-2.169-66.17 6.136 0 1.076 31.491 81.726 34.02 89.965 1.796 5.852 17.033 5.461 33.665-0.862zm541.02-9.771c-0.795-2.072-4.333-14.153-7.863-26.848-19.779-71.137-84.281-187.09-104.06-187.07-6.699 9e-3 -147.89 122.09-162.27 133.51-18.55 14.729 10.833 9.516 56.551 28.828 33.542 14.169 53.744 12.629 174.92 46.17 34.954 9.675 44.831 10.925 42.712 5.405zm-437.46-13.353c79.431-18.662 76.397-14.476 92.74-30.758 22.132-22.048 15.202-11.873-90.496-30.845-42.856-7.693-40.496-9.039-49.763 28.388-4.285 17.307-8.603 34.572-9.596 38.366-2.216 8.472-0.028 8.275 57.115-5.151zm-828.45 0.165c12.892-2.976 25.907-6.792 28.922-8.479 6.087-3.406 8.853-2.457-65.423-22.468-158.9-42.809-143.78-39.489-164.96-36.237-37.332 5.732-35.227 4.576-34.111 18.739 1.887 23.943-3.964 14.408 158.44 48.08 41.714 8.65 41.256 8.648 77.136 0.365zm91.315-36.016c5.052-9.977 10.486-19.733 12.077-21.679 5.499-6.729-26.111-41.464-37.697-41.422-22.037 0.078-207.24 22.945-210.49 25.99-2.39 2.235 2.661 3.674 95.234 27.144 140.31 35.569 128.34 34.723 140.88 9.967zm674.34-2.903c2.57-9.977 5.518-21.176 6.552-24.885 1.731-6.21 1.102-6.67-7.948-5.805-5.638 0.539-9.704 2.486-9.537 4.567 1.093 13.657-0.908 72.095 10.933 26.123zm2058.5 12.181c6.304-2.345 12.884-47.434 7.663-52.508-10.586-10.287-55.852 33.874-55.836 54.453 2e-3 3.575 37.387 2.066 48.173-1.945zm-2535.4-16.7c-4.176-1.392-52.044 4.847-56.292 7.337-15.204 8.911 9.521 11.069 33.742 2.946 14.64-4.91 24.787-9.537 22.55-10.283zm2490.1-11.553c31.128-44.463 28.448-57.288-8.015-38.35l-19.559 10.159c-1.895 68.188-5.079 74.832 27.574 28.191zm102.64 26.562c18.593-2.549 16.739-0.63-8.166-53.834l-11.57 1.85c-14.446 2.31-12.797-0.825-15.059 28.616l-1.938 25.214c9.548 0 20.858 0.33 36.733-1.846zm106.35-9.589c0-2.987-41.337-28.828-70.437-50.218-30.679-22.55-35.492-15.085-16.615 25.775 14.584 31.568 15.658 32.816 27.005 31.386 15.598-1.965 60.047-3.978 60.047-6.943zm272.84-13.352c76.685-2.913 73.979-6.355-14.513-18.459-92.972-12.717-182.13-26.015-228.69-29.239-20.296-1.405-37.525-4.005-39.966-6.03-5.898-4.895-49.486-7.706-59.325-9.305-10.266-1.668-5.335 5.737 11.923 17.906l50.481 35.619c51.578 36.407 11.755 19.7 280.09 9.508zm-3093.6-7.377c5.417-2.899 5.714-4.947 3.893-26.848-2.474-29.753-0.671-28.481-33.359-23.553-15.166 2.286-31.742 4.166-36.836 4.177-13.976 0.031-13.545 3.201 2.901 21.353 20.415 22.531 47.741 33.252 63.401 24.871zm69.451-29.35c26.433-39.873 25.641-37.781 13.866-36.653-9.235 0.884-10.539 2.526-24.944 31.409-24.772 49.669-19.902 51.975 11.078 5.244zm75.234 17.947c42.556-7.561 43.545-7.806 43.513-10.765-0.041-3.688-72.846-47.409-75.852-45.551-4.634 2.864-45.838 65.915-44.495 68.088 1.609 2.604 31.644-3.742 76.834-11.772zm661.54-5.143c21.807-18.696 32.917-25.733 69.886-57.172 15.166-12.897 43.56-36.472 63.099-52.389 43.958-35.81 40.631-45.391-35.905-103.38-50.015-37.895-50.017-37.895-60.631 0.425-4.2 15.166-14.455 50.493-14.455 50.493l-63.225-1.622c4.562 22.808 6.85 30.657-22.669 28.989-20.08-1.135-24.476 0.624-14.969 5.988 10.681 6.027-1.112 10.484-27.74 10.484h-25.231c-1.538 16.037-0.334 18.416-14.588 27.085-26.684 16.23-21.225 20.806 24.816 20.806 34.489 0 37.706 0.46 40.566 5.805 2.532 4.731 6.077 5.805 19.159 5.805 18.549 0 27.281 3.694 27.281 11.541 0 9.206-18.896 12.21-102.31 16.269-50.184 2.441-47.548 6.708 10.884 17.619 39.836 7.439 38.091 13.626 79.819 21.358 15.166 2.81 28.125 5.259 28.8 5.443 0.677 0.183 8.513-5.913 17.417-13.547zm3316.3-39.984-0.919-18.783c-4.574-93.516-44.987-220.03-99.659-311.99-21.903-36.842-8.174-39.705-97.102 20.249-41.336 27.868-91.157 61.359-110.71 74.425-46.823 31.283-48.355 27.833 18.503 41.68 107.54 22.272 117.6 25.467 127.44 40.489 10.89 16.621-1.179 29.573-34.1 36.597-13.224 2.821-114.17 25.843-128.53 28.868-14.368 3.025-39.837 10.091-56.599 15.703-61.613 20.625-112.76 23.98-156.74 38.095-28.497 9.147-54.218 15.569-81.747 20.409-20.959 3.685-57.182 21.467-57.479 28.216-0.375 8.536 22.274 24.649 33.284 23.677 10.803-0.955-6.464 0.521 644.36-37.634zm-4407.5 21.987c31.129-4.738 115.16-19.163 133.52-21.889 46.903-6.965 41.764-6.104 15.964-32.904-126.37-4.095-91.815-2.72-194.47-10.773-80.018-6.278-86.602-8.603-81.535-28.793 1.6-6.376 0.412-7.11-18.452-11.401-44.549-10.133-45.51-9.448-64.042 45.614-11.461 34.053-13.879 31.089 34.867 42.748 21.551 5.155 53.551 13.073 71.112 17.595 39.489 10.17 34.866 10.179 103.04-0.197zm531.16 1.611c25.371-4.334 46.44-11.492 46.44-15.778 0-1.335-16.653-3.939-37.007-5.787-53.145-4.824-52.734-4.864-56.308 5.39-1.669 4.789-3.606 8.708-4.305 8.708-3.61 0-15.578-9.843-15.578-12.812 0-6.006-54.637-25.278 2.951 11.354 17.591 11.189 26.694 15.302 31.879 14.401 3.991-0.694 18.358-3.158 31.928-5.476zm-222.83-7.867c5.511-13.115 4.698-17.015-3.547-17.015-6.662 0-9.806 8.818-7.266 20.383 2.543 11.573 4.834 10.86 10.813-3.368zm310.84-5.632c-4.25-4.25-19.031-2.203-20.698 2.866-0.944 2.87 0.142 3.52 3.642 2.177 8.939-3.43 21.985-0.115 17.056-5.043zm219.66-18.64c0-3.342-3.709-4.354-15.964-4.354-14.789 0-18.844 1.958-14.029 6.772 4.178 4.178 29.993 2.096 29.993-2.418zm63.13 0.726c-0.665-1.996-2.951-3.628-5.079-3.628-2.129 0-4.414 1.633-5.079 3.628-1.631 4.891 11.792 4.902 10.158 0zm78.295 1.756c20.319-2.441 17.071-5.77-6.371-6.528-19.547-0.633-26.099 0.978-23.182 5.699 1.947 3.152 8.65 3.34 29.553 0.829zm-755.31-8.429c49.705-8.519 46.588-11.672-14.575-14.741-41.736-2.095-43.397-1.506-31.323 11.097 9.051 9.446 11.102 9.608 45.898 3.644zm3220.5-9.007c10.941-10.957-87.272-45.805-100.38-35.615-4.272 3.322-66.628 13.52-105.86 17.313-53.252 5.148-58.897 6.005-56.223 8.54 9.521 9.028 254.11 18.126 262.46 9.762zm96.647-2.659c6.148-0.779 15.585 0.178 20.97 2.125s10.63 2.702 11.655 1.677c1.952-1.951-34.396-57.392-42.202-64.371-4.263-3.812-38.282 0.546-115.53 14.797-21.438 3.955-3.092 9.37 67.483 43.107 14.721 7.038 20.849 7.321 57.62 2.665zm87.275-14.659c-0.288-13.985-3.865-59.118-5.023-74.379-13.788 1.39-36.436 2.904-49.257 9.541-6.036 3.125-12.816 5.681-15.067 5.681-8.917 0-6.291 6.359 16.319 39.52 27.655 40.561 25.851 39.05 41.195 34.489 11.53-3.428 12.055-4.086 11.833-14.852zm32.78 5.577c2.346-6.114-4.353-82.687-7.51-85.845-8.868-8.868-11.817 66.473-3.525 90.046 1.045 2.973 9.52-0.253 11.035-4.201zm-2836.4-3.477c0-2.316-5.742-5.724-13.414-7.961-7.378-2.151-15.048-5.88-17.045-8.286-4.909-5.914-7.998-5.597-31.957 3.284-25.738 9.54-23.42 13.316 9.486 15.457 40.351 2.626 52.93 2.033 52.93-2.494zm2953.8-6.577s178.81-118.93 197.57-131.1c37.41-24.255 39.235-26.556 23.22-29.282-71.647-12.195-192.62-36.536-195.54-36.53-3.175 7e-3 -21.16 37.51-19.017 39.654 1.135 1.135 9.89 2.986 19.456 4.114 49.036 5.782 44.291 35.61-7.344 46.166-50.459 10.316-42.983 3.865-73.462 63.382-23.181 45.264-26.21 52.766-21.31 52.766 7.23 1e-3 63.843-7.541 76.433-9.175zm-3062.7 0.506c3.364-2.144 3.625-3.949 1.151-7.937-3.703-5.967-34.737-9.018-39.838-3.917-7.716 7.716 28.008 18.662 38.687 11.854zm2118.2-20.946c8.892-9.548 8.592-21.222 10.025-36.137-64.338-45.934-63.163-48.167-66.068-28.796-2.121 14.145 1.235 19.899 43.314 89.771 1.79-5.607 4.026-15.493 12.729-24.838zm1042.7 3.417c224.22-39.283 225.45-44.656 295.58-59.204 37.778-7.836 37.025-7.339 38.951-25.664 1.795-17.089 8.504-14.12-63.269-28.004-33.459-6.472-107.31-21.205-107.31-21.205s-183.22 122.4-190.8 127.08c-23.559 14.564-20.669 15.316 26.842 6.993zm-769.17-1.757c122-4.298 217.69-13.786 217.69-21.586 0-5.661-110.44-54.822-116.09-51.677-2.402 1.337-38.979 18.224-81.283 37.526-86.816 39.612-91.08 42.21-63.855 38.9 10.376-1.262 29.968-2.685 43.537-3.163zm602.08-33.512c22.333-41.416 22.238-40.972 8.175-38.369-23.428 4.336-36.985 8.535-36.511 11.31 0.272 1.596 1.408 16.29 2.523 32.653 2.539 37.233 2.744 37.188 25.813-5.594zm-3432 26.948c0-3.933-7.801-6.116-21.862-6.116-25.307 0-24.34-18.96 1.112-21.807 25.481-2.85 24.669-2.046 22.716-22.517-0.949-9.944-5.516-59.117-5.516-59.117l-12.012-4.153c-22.106-7.642-15.533-22.943 6.854-15.954 19.453 6.073-76.96-58.447-112.09-75.013-11.364-5.359-21.564-11.201-22.666-12.984-1.102-1.782-4.663-3.241-7.914-3.241-6.87 0-22.771-10.556-22.771-15.116 0-3.666-3.732-6.697-29.471-23.944-25.963-17.396-23.173-18.417-103.21 37.739-18.245 12.801-22.343 5.648 49.813 86.946 49.894 56.215 57.577 64.126 65.547 67.492 6.244 2.636 8.612 5.609 8.612 10.81 0 6.387 24.944 39.128 38.042 49.933 6.771 5.585 144.82 12.298 144.82 7.042zm2770.1-8.676c34.917-16.711 135.46-60.107 142.58-65.312 5.467-3.998-94.135-55.855-101.7-52.951-4.742 1.82-43.686 65.755-59.823 87.444-30.379 40.829-23.918 51.336 18.951 30.819zm-2453.3 1.835c-4.063-4.063-40.466-5.015-53.407-1.396-15.202 4.251-8.258 7.842 13.061 6.754 38.514-1.965 45.129-0.575 40.346-5.358zm-481.3-1.195c5.28-5.28-28.724-41.617-38.945-41.617-18.037 0-14.017 36.68 4.277 39.026 31.166 3.996 31.851 5.407 34.668 2.591zm594.06-2.078c0-10.087-17.423-12.521-28.299-3.954-7.09 5.584-3.418 7.952 12.336 7.952 11.624 0 15.963-1.086 15.963-3.998zm94.187 1.433c7.054-0.207 10.404-1.365 8.708-3.01-2.817-2.731-84.437-6.109-86.948-3.599-6.797 6.796 13.483 8.509 78.24 6.609zm2112.8-6.353c10.922-8.591 10.649-10.357-9.572-61.94-5.094-12.996-20.441 20.946-20.54 45.425-0.057 14.361 19.331 24.995 30.112 16.515zm-2868.7-34.619c-20.077 0-26.948 1.481-21.458-12.824 1.352-3.524 6.075-4.591 20.318-4.591 24.33 0 24.428 0.277-15.674-44.5-18.827-21.022-43.708-49.65-55.292-63.618-26.802-32.319-41.341-24.151-101.44 56.989-52.065 70.293-56.401 60.963 38.707 83.289 90.356 21.211 103.51 21.802 134.84 22.988-1e-3 -13.197-1e-3 -24.537-1e-3 -37.733zm-286.7 33.21c2.82-2.82-1.167-12.893-5.102-12.893-4.354 0-6.913 5.602-4.97 10.885 1.37 3.727 7.192 4.888 10.072 2.008zm3686.6-11.69c35.337-5.724 65.381-11.493 66.765-12.82 2.286-2.192-73.799-119.87-79.966-123.68-2.299-1.421-44.305 16.351-160.12 67.746-17.323 7.687-31.54 15.207-31.593 16.712-0.2 5.628 12.25 8.174 112.43 56.489 15.765 7.604 19.071 7.445 92.486-4.447zm-434.43-11.641c3.031-4.156 64.854-87.508 64.711-93.532-0.25-10.546-89.911-46.5-89.972-36.076-0.026 4.39-1.971 34.105-4.331 66.032-5.589 75.636-5.557 79.074 0.744 80.721 12.236 3.197 15.369 1.335 28.848-17.145zm-50.228-0.446c0.913-7.583 16.485-144.94 16.485-144.94l-34.745-18.519c-41.102 86.091-44.258 85.966-11.426 153.17 14.962 30.626 26.746 34.712 29.686 10.295zm-2665.6-0.726c0-4.012 19.501-3.669 22.008 0.387 1.853 2.999 40.501 1.927 43.639-1.21 0.607-0.607 1.701-7.479 2.432-15.27 1.428-15.233 6.392-21.237 24.076-29.121 22.139-9.87 8.303-15.212-50.075-19.331-57.004-4.022-53.417-6.53-49.778 34.796 2.225 25.273 7.698 46.422 7.698 29.749zm319.28-2.903c0-1.596 3.22-2.902 7.156-2.902 6.016 0 24.772-14.075 24.772-18.591 0-3.223-61.935-6.691-92.88-14.978-32.073-8.589-60.471-9.716-70.724-2.806-11.417 7.694-11.532 11.45-0.388 12.61 4.789 0.498 10.016 2.59 11.614 4.648 8.2 10.555 120.45 31.076 120.45 22.019zm2970.4-9.266 37.438-6.425-1.724-50.179c-2.408-70.064 9.337-58.467-126.78-85.86l-21.815 7.956c-38.035 13.872-28.1 5.287 42.068 108.59 25.012 36.824 19.341 34.749 70.817 25.915zm-728.05-21.329c7.631-26.204 14.813-47.688 20.578-65.22-30.426-76.325-25.281-75.036-51.945-46.77-23.288 24.686-25.078 34.696-39.433 96.227 58.079 43.513 61.79 46.701 70.8 15.763zm795.48-0.607-4.78-24.621c-4.843-24.863-10.019-25.205-7.687-0.508 1.042 11.027 1.897 22.988 1.914 26.58 0.021 4.672 1.738 6.531 6.056 6.531 5.022 0 5.777-1.34 4.497-7.982zm56.891 0.333c29.066-5.748 28.668-5.453 41.586-30.801 12.404-24.339 13.82-22.598-27.741-34.128-18.358-5.093-39.469-10.988-46.914-13.099-16.87-4.784-17.218-4.388-12.292 14.015 20.08 75.023 1.383 72.71 45.361 64.013zm76.203-15.209c16.125-3.451 15.974-29.955-0.19-33.045-6.462-1.235-24.435 23.811-24.435 34.052-1e-3 1.951 13.358 1.405 24.625-1.007zm-360.99-87.439c-21.82-37.152-15.399-36.679-129.15-50.496-82.271-9.993-99.605-11.304-101.83-7.701-2.998 4.851-16.484 3.541-20.861-2.027-3.777-4.805-4.242-4.765-8.597 0.726-15.761 19.874-61.546 90.189-59.809 91.852 3.453 3.304 112.12 54.711 115.67 54.718 7.315 0.012 171.86-72.09 204.58-87.072zm351.86 21.425c4.399-8.97 7.302-17.007 6.45-17.859-1.542-1.542-79.8-15.468-135.99-21.825l2.063 8.404c3.415 13.913-1.804 11.626 94.561 41.428 25.338 7.837 23.869 8.29 32.912-10.148zm-3141.7 7.104c8.103-1.871 14.734-4.525 14.734-5.898 0-5.789-8.672-22.628-11.653-22.628-6.023 0-46.398 19.916-46.398 22.887 1e-3 8.712 19.183 11.21 43.317 5.639zm3424.4-11.838c36.178-24.901 115.24-76.978 165.88-109.26 59.964-38.227 60.5-34.022-14.915-116.96-50.788-55.856-193.97-167.63-210.45-164.28-5.761 1.171-122.51 230.95-122.54 241.17-0.027 10.302-6.064 21.977-15.654 30.266-8.242 7.124-46.422 80.832-43.946 84.838 3.015 4.879 23.792 2.132 158.26 36.062 63.505 16.026 57.212 16.164 83.354-1.83zm-912.02-80.544c-2.395 0-4.354 2.101-4.354 4.668 0 5.782-14.643 3.02-18.285-3.448-3.29-5.844-29.85-5.652-32.107 0.231-0.919 2.395-3.018 4.354-4.664 4.354s-2.993-1.959-2.993-4.354c0-3.215-3.365-4.354-12.869-4.354-14.548 0-12.932-0.55-14.705-15.964l-31.928 1.007c-37.92 1.196-32.511-3.756-33.773 30.921l-1.057 29.025c2.901 1.443 95.272 47.615 97.372 47.772 2.593 0.194 75.868-89.858 59.363-89.858zm-2463.5 77.022c17.706-8.244 18.078-9.36 6.723-20.239-16.75-16.047-41.481-4.836-33.474 15.175 5.699 14.245 6.646 14.424 26.751 5.064zm2210.8-16.795c23.735-51.507 27.238-60.201 24.845-61.679-1.399-0.865-3.766 0.612-5.26 3.282-2.105 3.762-5.185 4.453-13.694 3.072-10.951-1.777-40.052 11.567-42.924 19.683-1.097 3.1 23.399 56.685 25.913 56.685 0.783 0 5.787-9.47 11.12-21.043zm-2339.1 3.895c12.371-11.823 89.202-41.914 90.641-46.228 1.033-3.101-43.637-32.434-49.265-32.35-3.281 0.049-51.68 74.379-51.68 79.368-1e-3 2.769 7.153 2.221 10.304-0.79zm-10.53-19.859c42.51-72.115 49.314-61.916 27.074-75.114-58.523-34.733-139.4-58.23-223.44-64.916-52.916-4.21-53.577-3.923-56.742 24.564-0.623 5.609 124.12 77.179 173.52 99.548 24.188 10.955 66.165 32.111 68.257 32.4 0.824 0.114 5.925-7.302 11.336-16.482zm2915.3 3.046c10.321-5.253 9.998-5.532-12.522-10.785-22.935-5.35-25.359-4.002-15.661 8.712 8.159 10.699 10.849 10.896 28.183 2.073zm-2729.1-1.067c15.495-11.034 10.807-17.437-7.246-9.894-9.238 3.86-10.19 5.148-7.509 10.159 3.814 7.126 4.391 7.115 14.755-0.265zm2883.6 2.66c3.455-5.591-7.831-11.17-22.596-11.17-17.792 0-17.868 4.271-0.171 9.688 17.598 5.387 20.247 5.559 22.767 1.482zm201.71-42.367c9.435-17.957 17.154-33.172 17.154-33.81 0-1.907-34.297-3.307-58.05-9.594-38.553-10.203-88.343-10.297-118.13-0.221l-26.999 9.133c0 54.8-3.795 33.261 121.9 59.771 49.719 10.486 44.177 12.671 64.117-25.279zm-836.19 10.654c3.426-37.145-5.945-43.49-20.34-13.773-4.777 9.861-8.685 18.32-8.685 18.797 0 1.992 22.008 12.277 24.671 11.529 1.597-0.447 3.556-7.896 4.354-16.553zm-142.22-4.634c0-9.207-4.601-8.51-8.127 1.232-6.915 19.102-9.183 21.294 0.406 12.555 4.247-3.87 7.721-10.074 7.721-13.787zm585.61-45.114c-2.723-8.168-54.453-22.553-54.453-15.142 0 4.75 6.968 13.514 12.525 15.753 10.137 4.084 43.332 3.6 41.928-0.611zm-69.058-4.448c-0.509-12.011-25.433-16.224-53.77-9.089-24.673 6.213-14.342 9.943 29.917 10.801 13.17 0.256 23.904-0.515 23.853-1.712zm117.24-13.787c0.919-2.395 4.817-4.354 8.663-4.354s8.618 1.959 10.605 4.354c4.02 4.843 20.318 6.007 20.318 1.451 0-3.834 14.512-3.834 14.512 0 0 4.87 25.265 3.52 27.172-1.451 0.919-2.395 4.977-4.354 9.018-4.354 29.975 0-81.14-143.84-159.87-206.95-29.514-23.66-27.514-24.984-60.522 40.055-8.102 15.964-20.402 38.486-27.332 50.049-17.397 29.027-15.969 25.044 26.689 82.015 19.824 0 40.366-0.702 78.075 4.64 57.708 8.176 94.395 4.138 83.878-9.233-14.5-18.434 10.258-34.584 27.781-18.122 25.547 24-1.653 42.829-65.845 45.581l-42.086 1.805 13.061 9.182c14.51 10.2 32.96 12.941 35.881 5.331zm366.97-2.012c2.682-2.682 2.137-4.874-2.417-9.721-11.115-11.831 1.951-28.819 20.686-26.895l8.711 0.895 58.023-114.47c67.894-133.94 66.947-116.31 7.465-139.04-96.793-36.989-165.96-51.987-269.4-58.415-81.457-5.062-54.293-23.106-43.093 190.01 9.107 173.28 7.409 160.86 21.111 154.36 29.146-13.831 72.934-14.572 126.96-2.149 38.922 8.951 66.365 11.017 71.963 5.418zm-229.71-24.836c-2.827-38.899-20.895-321.45-20.895-321.45l-18.797 0.733c-26.817 1.046-74.761 8.418-110.23 16.951-56.134 13.505-50.439 10.433-56.433 30.442-6.115 20.413-11.947 31.465-16.937 41.792 80.325 65.557 168.5 148.7 214.43 246.05 8.292 17.567 10.878 13.328 8.855-14.513zm-329.86 0.495c8.794-3.574 20.88-7.415 26.857-8.536 13.619-2.555 13.555-4.119-1.084-26.587-14.736-22.618-11.603-23.528-36.666 10.651-28.26 38.537-27.565 40.099 10.893 24.472zm-3308.9-29.521c-0.224-17.387-10.116-153.56-14.552-200.32-7.732-81.491-26.853-183.54-34.391-183.54-5.206 0-5.028 4.278 1.297 31.259 14.299 60.992 27.777 184.56 31.888 292.37 1.096 28.735 3.183 54.531 4.638 57.325 2.587 4.969 11.176 7.21 11.12 2.903zm306.27-189.39c-5.408-95.38-20.163-195.01-29.407-198.56-7.172-2.752-7.472 5.115-1.443 37.842 12.365 67.119 18.739 134.52 23.706 250.67 3.451 80.695 3.526 81.292 10.189 81.292 5.985 1e-3 6.043-10.971-3.045-171.25zm567.51-7.255c17.985-81.067 59.25-137.85 100.19-137.87 10.256-3e-3 12.309-5.071 10.975-27.09-1.79-29.551-0.322-28.068-27.719-27.996-66.641 0.177-97.906 49.561-102.92 162.57-3.796 85.487 4.414 98.29 19.48 30.381zm85.651-18.914c4.266-1.622 13.868-3.412 21.338-3.979 7.47-0.566 19.328-3.961 26.352-7.544 12.635-6.446 27.493-7.936 43.683-4.38 12.476 2.74 19.188-2.36 21.412-16.268 2.707-16.929 19.133-54.664 19.144-59.938 8e-3 -3.946-55.33-4.587-94.19-1.091l-20.189 1.816c-35.419 104.99-35.894 98.359-17.55 91.384zm383.17-0.207c1.073-1.735 0.497-4.608-1.28-6.385-4.756-4.756-3.94-7.874 2.061-7.874 4.571 0 5.27-2.467 5.136-18.141-0.099-11.662 1.623-21.636 4.821-27.926 7.141-14.044 5.387-14.886-31.028-14.886-38.405 0-35.22-2.297-49.377 35.606-12.808 34.292-13.097 33.709 16.592 33.513 14.56-0.096 28.428 1.547 35.503 4.207 14.89 5.598 15.254 5.637 17.572 1.886zm-171.24-2.993c7.093-1.786 12.896-4.196 12.896-5.355s5.158-10.089 11.463-19.844c15.659-24.228 14.338-33.508 22.063-53.609 2.313-6.019 4.206-11.57 4.206-12.336 0-2.757-43.237-1.325-44.977 1.49-3.677 5.948-21.615 79.625-21.736 89.272-0.055 4.417 0.05 4.419 16.085 0.382zm-11.614-86.005c2.332-7.743 2.671-6.531-62.303-6.531-0.995 5.671-9.901 57.65-14.776 66.758-6.67 12.462-4.157 14.5 18.141 14.716 29.82 0.289 29.193 4.98 35.556 5.372 3.885 0.239 19.565-67.639 23.382-80.315zm97.054-4.354c0.031-3.728-16.842-2.381-18.178 1.451-6.067 17.393 18.153 1.53 18.178-1.451zm-129.58-33.399c1.76-6.376-1.752-38.151-2.469-45.694h-127.71l-0.862 21.497c-1.261 31.446-6.906 28.949 65.825 29.113 58.285 0.13 63.941-0.296 65.217-4.916zm251.05-20.635c9.726-30.453 3.895-27.729-16.966-23.147v23.202c0 31.349 6.944 31.327 16.966-0.055zm917.64-1016.3h-264.13v850.44h264.13v-850.44zm354.11 0h-249.62c0.156 519.53-0.365 612.9 4.492 647.26 9.937 70.304 9.084 139.32-1.72 139.32-6.509 0-5.674 2.562-5.674 63.855h252.52c0-23.994-1e-3 -826.46-1e-3 -850.44zm211.84 827.94c14.667-74.887 39.219-146.42 59.579-173.57 12.006-16.015-1.647-17.926 9.745-33.336 8.991-12.161 7.942-17.222-10.029-48.349-56.066-97.114-101.76-206.22-126.19-301.3l-11.186-43.538-0.239 616.78h75.054l3.269-16.689zm410.41-186.88c7.466-13.293 7.858-15.189 3.628-17.556-6.248-3.496-6.263-22-0.029-28.892 5.367-5.934 3.632-6.955-29.391-59.815-4.022 38.9-3.774 47.461-4.347 121.17 21.209-7e-3 20.736 1.831 30.139-14.909zm-1643.9-49.365v-571.92c-74.861 5.003-72.563 2.809-72.563 19.639 0 24.617 8.668 0.668 8.752 26.618 0.029 8.987 0.927 12.394 2.578 9.787 3.511-5.543 8.988-1.422 8.988 6.763 0 8.807-8.165 11.954-13.667 5.269-3.968-4.821-4.101-4.78-2.205 0.675 5.631 16.203 5.758 15.964-8.461 15.964-9.976 0-13.4-1.112-13.4-4.354 0-2.88-2.88-4.354-8.506-4.354-10.821 0-13.246-10.133-4.624-19.319 26.389-28.113 25.699-41.684-2.109-41.48-21.566 0.158-64.521 6.075-67.783 9.337-1.556 1.556 7.803 449.12 13.92 556.5 23.6 0 114.47-4.477 159.08-9.124zm301.86-597.5h-171.25v597.92h171.25v-597.92zm-381.2 93.847c-2.589-2.589-2.589 6.459 0 3.87 1.064-1.064 1.064-2.805 0-3.87zm-4.838-12.406c0-1.502-1.306-3.538-2.902-4.525-1.597-0.987-2.903 0.242-2.903 2.731 0 6.288 5.805 5.096 5.805 1.794zm13.593-3.618c-2.158-5.392-2.531 7.865-0.229 5.563 0.964-0.964 1.067-3.468 0.229-5.563zm-8.755-13.001c-2.589-2.589-2.589 6.459 0 3.87 1.064-1.064 1.064-2.805 0-3.87z"/> </svg>